PathFileType	4	(X/Y/Z)	24_2_34_p1_0-255_filt_butterworth.trc
DataRate	CameraRate	NumFrames	NumMarkers	Units	OrigDataRate	OrigDataStartFrame	OrigNumFrames
59.0	59.0	5	27	m	59.0	31	255
Frame#	Time	RHip			RKnee			RAnkle			RBigToe			RSmallToe			RHeel			LHip			LKnee			LAnkle			LBigToe			LSmallToe			LHeel			Neck			Head			Nose			RShoulder			RElbow			RWrist			RThumb			RIndex			RPinky			LShoulder			LElbow			LWrist			LThumb			LIndex			LPinky			
		X1	Y1	Z1	X2	Y2	Z2	X3	Y3	Z3	X4	Y4	Z4	X5	Y5	Z5	X6	Y6	Z6	X7	Y7	Z7	X8	Y8	Z8	X9	Y9	Z9	X10	Y10	Z10	X11	Y11	Z11	X12	Y12	Z12	X13	Y13	Z13	X14	Y14	Z14	X15	Y15	Z15	X16	Y16	Z16	X17	Y17	Z17	X18	Y18	Z18	X19	Y19	Z19	X20	Y20	Z20	X21	Y21	Z21	X22	Y22	Z22	X23	Y23	Z23	X24	Y24	Z24	X25	Y25	Z25	X26	Y26	Z26	X27	Y27	Z27	
31	0.5254237288135594	0.4135957784077221	0.5142512346520262	0.8020256190756013	0.42599005575935206	0.6118274146966958	1.2772891882653663	0.42242595495245744	0.6677828436025387	1.7036314817454872	0.4159691098515462	0.5606293274230535	1.739670026736777	0.4780309941301865	0.5782112760363387	1.7305511530788211	0.3988547405152743	0.7165057659364903	1.7496306527414425	0.20545660082485875	0.50546918596851	0.8094309254623372	0.19935529899320736	0.5817827259729612	1.2904594936937728	0.2010705684087366	0.644231081468722	1.7169403452172576	0.2615983919739217	0.5243390456063112	1.7338750634794504	0.19671358585822868	0.5129263181732551	1.7219639505532338	0.20630281255360725	0.6661617811875927	1.7477736566912088	0.33133080359188394	0.380361398220805	0.251439993232506	0.31652849853951487	0.28630146073407886	0.032435612862082526	0.3167104874716987	0.2639921174642079	0.1388855914791328	0.4686216183528209	0.41846318182774245	0.3489163441747188	0.5169580613640168	0.4926890708443633	0.6167679660802267	0.47940481238277	0.3869158321165709	0.8544782696121258	0.4212601515755994	0.3030056478777266	0.9314486972742502	0.4333931456319038	0.319404286529403	0.9573400608907702	0.4621428748514292	0.37160283084659673	0.9705707969480817	0.17299208192370755	0.3984856295470294	0.3606173308280127	0.12622137556962032	0.43467187343425107	0.6173040570870549	0.15715339139488	0.34194559287190507	0.8389781832799107	0.23315071967655282	0.3205910333960683	0.9262771683539484	0.2112023920483499	0.2537745606590084	0.9366496627197288	0.1724385522655496	0.3025214620448809	0.9558442494764989
32	0.5423728813559322	0.41729596542337843	0.4998145641323755	0.7984860617243464	0.42461920565812555	0.6056194955259869	1.271379199912078	0.42237187102618723	0.667267476888981	1.7036997478068743	0.41609477091842073	0.5598266363778077	1.7410446256329672	0.47736679148448247	0.5778667693939337	1.7315656879185914	0.3988241017090741	0.7157070881034693	1.748810593143484	0.21066859561753426	0.4909569775749092	0.8080545532704763	0.19989165858673563	0.581179329185975	1.2858638670774494	0.20108354476932525	0.644191357129177	1.7179804889972674	0.26056196766195544	0.5241917798754424	1.7352471545525363	0.1968646334199191	0.5128032537699846	1.7228232801561334	0.2063652159417711	0.6660832537816661	1.7480213138272114	0.33050778827857813	0.3785225709765766	0.25140645616103957	0.313703705203965	0.28545509878412045	0.03297469320530017	0.31426998411263163	0.26312110998285665	0.1389805348483152	0.4696872711275361	0.41884188655044097	0.34984344556514657	0.5215862410163988	0.4913341138998361	0.6184146867826902	0.49602360258796013	0.3877692425389981	0.8552867596693288	0.43562385605720483	0.3315588623323622	0.9424547540132475	0.4498284600140739	0.33656307422387843	0.9673216329585548	0.4770278105729642	0.37435421325513735	0.9761384118915455	0.1730028281916741	0.3982968475853438	0.36055552847094424	0.12336835724313236	0.4365129593876207	0.6158440577502535	0.14534645231079957	0.34101875706661194	0.8412914852503814	0.2174366922711638	0.32510556329756635	0.9355871481141693	0.18990498675196457	0.26343537538642225	0.9428730871165013	0.15062329462018348	0.3137631483229876	0.9603861241251139
33	0.559322033898305	0.4222660598890201	0.4821453518050614	0.794651759161666	0.42344669535064167	0.5970025720491835	1.2636637476228891	0.422316023504665	0.6670469797424974	1.7037966544305478	0.4162074919687556	0.5590588348774949	1.7432525162219061	0.4757878426533583	0.5794879698368244	1.7321547798052552	0.3987344877596725	0.7161532407339594	1.7488568142574867	0.2176028145065253	0.4697792405801521	0.802494763800369	0.2008476374290497	0.5800880118801676	1.2809488757399434	0.201039765428153	0.6441118304636649	1.7204631046795504	0.25873306448019157	0.5215022231896171	1.736444041680742	0.19733295729053485	0.5123854633790849	1.7240625703416825	0.20613920833044191	0.6663115203027289	1.7493819064423406	0.33025513786121735	0.3776571742049584	0.2514352061159707	0.31031750335935926	0.28472812046283297	0.03405542601558916	0.31288304833759295	0.26257915532572185	0.13910319151450823	0.47104085311616484	0.4193679334457513	0.3511011295693241	0.527510509968238	0.48401646629509576	0.6201874485959791	0.5134864943841143	0.3878233863352836	0.8570732853779799	0.451918772893935	0.3559026473993171	0.953729559314092	0.4676793146122171	0.3444725219526728	0.974566962441059	0.49080486766662346	0.38998386835137666	0.9834435023373144	0.1730363041789009	0.39846547457435444	0.3605443382621499	0.11805861568171339	0.44314958703058965	0.6151815831235801	0.13791151661416456	0.3399676611050125	0.8449973085849409	0.19777653209834078	0.3268150088266882	0.9419256711706261	0.16941062513345279	0.2817060511502445	0.9510832740327984	0.1367601077041733	0.32699627216946553	0.9632709441080711
34	0.576271186440678	0.42705617104546184	0.4671340592256855	0.7908291715973554	0.4228913529021003	0.5893661498539458	1.2576500456178499	0.4223813972653097	0.6672281843768169	1.7038670082764567	0.4161183068963982	0.5588336324283073	1.7457697674698287	0.4741023517534711	0.5822116912227233	1.7331064925812947	0.3987738482886931	0.7172792587686343	1.749426464150791	0.22302608169332544	0.4504111402911827	0.7958989286346569	0.2017479756159558	0.5788518942138718	1.2776382435123013	0.20090539743386504	0.6439181429602137	1.7235901093866555	0.257122949208556	0.5133728105273742	1.735886389511765	0.1980553605628193	0.5116243564066932	1.724981279425515	0.2054661923453437	0.6668985009134469	1.7523915535378038	0.3300108731862264	0.37711371133760163	0.2517875843886918	0.30688176693557023	0.2839358132801318	0.035376322657870475	0.31243209307915376	0.2625293607501641	0.13945217585149006	0.471999951912485	0.41976080769967156	0.35206788342045814	0.5333560284151813	0.4769171483319529	0.6219950701852456	0.5283666491693937	0.38947969537797505	0.8610332753383375	0.4681396080796433	0.3715176012016136	0.9639496358347963	0.48475782294376935	0.3472840783546699	0.9794046959154898	0.5067491767820278	0.4123533684422276	0.9906665389556508	0.17318402641040317	0.39993987312274304	0.3605863804617829	0.11168333538926725	0.4518705322009993	0.615132292107613	0.1314391295864702	0.34354511101152096	0.8497590993666325	0.17580118044583098	0.33159117864693544	0.9466025100315401	0.15124390450291822	0.30278347765518776	0.960398133865443	0.1255208731082711	0.3418407945223075	0.9664062692663716
35	0.5932203389830508	0.43017511140933906	0.45872408767037764	0.7873345832705699	0.42285996007762694	0.5854452408882485	1.2554416246715911	0.42284155902199205	0.6676606880628659	1.7039175157675515	0.415719188639287	0.5590874504813792	1.7478512171060183	0.4732797911997891	0.5820310604565608	1.7342853153000253	0.39931800267403655	0.7166600315554927	1.7483944567679512	0.22411787440760597	0.44211316062324674	0.7917699390798343	0.2020363313512242	0.5779824943826655	1.2769412421662043	0.2007100356673388	0.6436280491714271	1.725772345233008	0.2564119193102675	0.4989673575543858	1.7317349477878115	0.19852252895418493	0.5105384831020018	1.725142314475989	0.204566982110698	0.6675459598004944	1.7561810220316314	0.329254409718209	0.3765716929099864	0.25276897838759693	0.3042064890600529	0.28287299965929685	0.03636357375616312	0.312465961225396	0.2628407463833078	0.14028074046230676	0.4723428298814816	0.41981317858294964	0.3523190443579534	0.5383358265946182	0.4750017703857391	0.6235851456000496	0.5393024746337393	0.3935668158164268	0.8665572679298073	0.4829828602975053	0.3806221742382512	0.9724281067240232	0.500968716870687	0.35341300085934496	0.9836089283190745	0.5254990492260212	0.4263842967817943	0.9947228101318912	0.17350334913033616	0.4034188326608976	0.36064417409733407	0.1066749865218842	0.45904038004773273	0.6154331633656074	0.12224540542450077	0.3553470425649357	0.8544322435418035	0.15707735160711836	0.3376929314191151	0.9502299469691871	0.13700028297408834	0.31871893033066023	0.9687581857233734	0.10904757874846331	0.3625236149515011	0.9730205288557162
